<?xml version="1.0" encoding="utf-8"?><svg xmlns:xlink="http://www.w3.org/1999/xlink" id="Scene_1" image-rendering="auto" baseProfile="basic" version="1.1" x="0px" y="0px" width="20" height="20" viewBox="0 0 20 20" xmlns="http://www.w3.org/2000/svg"><g id="Scene 1_3.0"><g transform="matrix(1 0 0 1 -1019.399 -445.449)"><path fill="#C7C9C9" d="M1037.95,455.45Q1037.95,451.95 1035.45,449.45 1032.95,446.95 1029.45,446.95 1025.95,446.95 1023.45,449.45 1020.95,451.95 1020.95,455.45 1020.95,458.95 1023.45,461.45 1025.95,463.95 1029.45,463.95 1033,463.95 1035.45,461.45 1037.95,459 1037.95,455.45"/></g></g><g id="Scene 1_2.0"><g transform="matrix(0.88 0 0 0.88 -895.799 -390.799)"><path fill="#FFF" d="M1035.45,449.45Q1032.95,446.95 1029.45,446.95 1025.95,446.95 1023.45,449.45 1020.95,451.95 1020.95,455.45 1020.95,458.95 1023.45,461.45 1025.95,463.95 1029.45,463.95 1033,463.95 1035.45,461.45 1037.95,459 1037.95,455.45 1037.95,451.95 1035.45,449.45"/></g></g><g id="Scene 1_1.0"><g transform="matrix(1 0 0 1 -1019.399 -445.449)"><path fill="#C7C9C9" d="M1025,455.95L1033.95,455.95 1033.95,454.95 1025,454.95 1025,455.95"/></g></g><defs/></svg>