<?xml version="1.0" encoding="utf-8"?><svg xmlns:xlink="http://www.w3.org/1999/xlink" id="Scene_1" image-rendering="auto" baseProfile="basic" version="1.1" x="0px" y="0px" width="34" height="60" viewBox="0 0 34 60" xmlns="http://www.w3.org/2000/svg"><g id="Scene 1_0.0"><g transform="matrix(1.03 0 0 1.03 1 2.2)"><path fill="#CC9484" d="M30.65,19.15L31,17.35 31.1,15.6Q31.1,9.15 26.55,4.6 22,0 15.55,0 9.1,0 4.55,4.6 0,9.15 0,15.6L0.2,18.15 0.4,19.15Q1.15,22.55 4.5,28.05 8.75,35.2 10.3,38.7 11.7,41.9 13.15,46.4L15.55,55 17.9,46.4Q19.4,41.8 20.8,38.7 22.35,35.15 26.55,28.05 29.9,22.5 30.65,19.15"/></g></g><defs/></svg>