<?xml version="1.0" encoding="utf-8"?><svg xmlns:xlink="http://www.w3.org/1999/xlink" id="Scene_1" image-rendering="auto" baseProfile="basic" version="1.1" x="0px" y="0px" width="80" height="130" viewBox="0 0 80 130" xmlns="http://www.w3.org/2000/svg"><g id="Scene 1_2.0"><path fill="#F4F3F1" d="M47.4,9.7Q47.3,9.6 47.2,9.6 47.05,9.6 47,9.7 46.9,9.75 46.9,9.9 46.6,11.5 45.95,13.75 44.7,18.35 43.05,21.35 41.3,24.35 39.8,25.4 37.85,26.35 36.4,27.35L35.85,27.8Q35.7,24.45 34.35,21.05 33,17.75 31.05,15.65 28.2,12.6 20.9,9.1 17.3,7.4 14.25,6.25L16.65,10.4Q18,12.75 19.6,18.35 20.4,21.35 21.35,25.15 21.8,26.85 22.3,27.8 22.8,28.85 23.7,29.65 24.25,30.1 25.3,30.55 26.9,31.25 27.3,31.45L27.15,31.4Q23.7,30.85 21.75,32.1L20.65,33.05Q19.65,34.4 20.2,36.45L20.35,36.75Q20.65,37.6 21.35,38.2 21.3,38.55 21.15,38.8 20.65,40.15 21,41.6 21.25,42.35 21.5,42.85 21.9,41.55 22.8,40.65 23.4,40.05 24.1,39.9 24.4,40.25 24.9,40.6 25.8,41.25 27,41.55L27.05,41.55 27.05,41.6 29.95,41.95Q33.35,42.05 36.3,40.6 36.5,41.15 36.9,42.05 37.2,42.75 37.65,43.2 38.35,44.1 39.45,44.65 40.4,45.15 42.1,45.6 43.2,45.85 48.85,47.35 54.55,48.95 56.85,50.3L61,52.7Q59.9,49.7 58.1,46.05 54.65,38.75 51.55,35.9 50.15,34.55 47.95,33.4 45.85,32.35 43.45,31.7 43.95,30.35 44.3,28.85L44.25,28.85Q45.4,27.5 45.95,27 46.85,26.2 47.95,25.45 48.55,25.05 49.45,24.5 50.2,23.9 55.2,20.7L58.55,18.4Q59.05,18 59.4,17.75 59.55,17.65 59.55,17.4 59.55,17.3 59.45,17.25 59.4,17.1 59.25,17.1 59.2,17.1 59.1,17.2 54.2,19.8 51.8,21.2 49.25,22.75 47.95,23.4 45.7,24.55 45,24.5 44.75,24.5 44.6,24.35 44.15,24.1 44.35,23.4 45.3,21.45 46,19.25 47.35,14.9 47.5,9.9 47.5,9.75 47.4,9.7 M42.4,28.3Q41.45,29 40.55,30.2L39.8,31.3Q37.85,31.35 36.8,32.25 36.3,32.7 36.1,33.15 37.5,32.9 38.8,32.9 40.6,32.95 42.6,33.45 43.6,33.7 44.25,33.95 42.2,34.2 40.5,35.15 39.65,35.65 39.2,36.1 44.25,34.55 47.8,35.95 49.6,36.65 50.4,37.6 47.1,36.8 44.1,37.55L41.75,38.5Q48,37.7 52,40.5 54,41.85 54.75,43.4 50.85,40.95 47.1,40.95 45.95,40.85 44.95,41.1L44.15,41.3Q50.35,42.3 54.1,45.25 56.05,46.75 56.65,48.05 54.8,47 49.15,45.6 47,45 45.25,44.55 41.85,43.65 40.65,43.2 39.45,42.7 38.8,41.7 38.7,41.55 38.15,40.25 37.85,39.65 37.65,39.2 37.35,38.45 36.8,37.6L36.3,36.9Q34.95,35.1 33.55,34.6L34.25,35.7Q34.8,37.05 34.5,38 34.05,39.55 32.05,40.15L30.1,40.45Q29,40.45 26.85,39.7 26.3,39.5 25.95,39.2 25.5,38.6 25,38.25L24.95,38.2Q24.15,37.6 23.65,37.45 23.25,37.3 23.05,36.9L22.95,36.85Q22.6,36.45 22.5,36.15 22.2,35.3 22.35,34.65 22.65,33.65 23.8,33.15L23.95,33.05Q25.1,32.7 27.05,32.85L27.85,32.95Q28.4,33.05 29.5,32.95 30.55,32.85 31.65,32.55 31,31.65 30.05,31 28.95,30.15 27.95,29.7 27,29.25 26.6,29.1 25.3,28.5 25.25,28.45 24.25,27.8 23.7,26.55 23.25,25.45 22.35,22 21.5,18.55 21.35,18.05 19.9,12.45 18.85,10.6 20.15,11.25 21.65,13.1 24.6,16.9 25.6,23.05 26.05,22 26.05,20.15 25.95,16.45 23.5,12.5L24.4,13.1Q25.55,13.95 26.45,15.25 29.25,19.25 28.4,25.5 29,24.65 29.3,23.2 30.15,20.15 29.3,16.9L29.85,17.5Q30.55,18.3 30.95,19.45 32.4,23 30.85,28.05 31.3,27.6 31.8,26.8 32.75,25.05 33,23L33.8,26.2Q34.45,29.8 33.45,32 35.15,31.45 36.4,30.3 38.4,28.4 40.65,27.5 41.55,27.15 42.35,27.45 43.15,27.75 42.4,28.3"/><path fill="#F4F3F1" d="M39.05,60.1Q37.25,57.85 37.1,57.6 35.25,55.15 34.25,53.1 31.6,48.3 31.25,43.8 30.3,46.85 29.45,50.6 27.75,58.15 28.05,61.75 28.55,66.2 30.85,69.9 29.1,69.25 26.6,66.85 24.1,64.3 21.45,60.2L19.35,56.5 19.3,56.5Q19.2,56.2 19,56.35 18.7,56.4 18.75,56.65 20.35,61.7 23.05,65.65 24.4,67.65 25.9,69.3 26.25,69.95 26,70.35 25.9,70.6 25.65,70.65 24.4,71 17.8,69.35 15,68.7 9.25,67.5L9.05,67.5Q8.9,67.5 8.85,67.65 8.8,67.75 8.85,67.9 8.85,67.95 9,68.05L9,68.1 9.05,68.1Q9.95,68.45 10.15,68.55 10.8,68.8 14.2,69.85 15.6,70.3 21.1,71.95 21.6,72.15 22.8,72.55 24.1,73 25.2,73.5 26.35,74.05 28.65,76 29.75,76.9 30.65,77.8 31.55,78.45 33.3,80.05 35.2,81.8 36.25,82.6 37.65,83.7 39.8,84.65 42,85.55 43.55,85.65 43.85,85.65 44.5,85.65 45.1,85.65 45.9,85.55L46,85.65Q49.9,87.5 54.65,87.15 60.2,86.7 65.15,83.15 69.55,80 70.75,77.1 71.1,76.2 71.1,75.4L71.05,74.85 67.3,76.45Q65.4,77.25 62.85,77.8 59.2,78.7 56.55,78.35 54.8,78.15 52.95,77.1 54.25,75.05 54.7,72.45 55,70.5 54.5,68.65 53.35,64.95 49.15,65.4 48.6,65.45 47.9,65.65 46.55,66.05 46.1,66.75L45.8,67.2Q45.5,67.8 45.5,68.7L45.05,68.75Q43,68.75 41.5,70.35 41.6,69.9 42.05,68.75 43.2,65.6 41.65,63.5 40.85,62.45 39.05,60.1 M36.5,59.65Q40.6,64.9 40.8,65.45 41,66.55 40.6,67.9 39.85,70.15 39.75,70.6 39.2,73.55 40.5,75.1 41.25,75.1 41.9,75.1 43.15,74.95 44.8,74.45L44.95,74.45Q45.25,74.3 45.65,74.2 46,74.1 46.6,74L46.4,73.75Q45.85,73.25 45.75,72.4 45.75,71.65 46.15,71.25 46.6,70.8 46.8,70.4 46.7,69.55 46.95,68.95L47.25,68.5Q47.5,68 48.4,67.75 48.8,67.65 49.15,67.6 52,67.25 52.7,69.7 53.15,71 52.95,72.3 52.45,74.95 50.7,76.75L50.9,77.35Q51.35,78.9 50.75,80.35 50.1,81.8 48.7,82.5 46.05,83.65 43.25,83.35 41.25,83.15 39.65,82.25 38.1,81.35 36.95,80.2L34.95,78.25Q32.7,76 31.5,75.05 30.65,74.4 29.2,73.75 28.8,73.55 28.4,73.3L28.2,73.15Q27.55,72.85 27.9,72.25 28.2,71.7 28.65,71.6 28.85,71.5 29.75,71.85 31.15,72.2 32,72.4 34.1,72.85 36.3,73.95L36.4,74Q34.95,72.75 33.35,70.7L32.2,68.85Q34.35,70.35 35.85,70.25 36.65,70.15 36.95,69.75 32.9,68.8 31,65.55 30.35,64.5 30.05,63.4L29.85,62.45Q31.6,65.1 34.25,66.25 35.6,66.85 36.5,66.95 31.6,63.85 30.35,59.45 30,58.05 30.05,56.75L30.2,55.7Q31.75,60.2 34.25,62.25 35.5,63.3 36.45,63.4 32.75,59.1 31.8,54.75 31.5,53.4 31.5,52.2L31.55,51.25Q32.4,54.35 36.5,59.65 M43.95,71.1L44.35,71.35Q44.15,71.75 44.15,72.4 42.55,72.7 41.4,72.75 41.3,71.4 41.45,70.65 42.7,70.6 43.95,71.1 M52.35,78.75Q55.6,81.2 62.1,79.95 65.35,79.35 67.95,78.25 62.55,83.85 56.2,84.95 52.25,85.7 48.65,84.65 49.8,84.05 50.65,83.1 52.1,82 52.4,80.3L52.35,78.75"/><path fill="#F4F3F1" d="M12.6,97.05L9.75,97.05 7.75,99.6Q7.2,100.4 6.4,101.9 6.65,100.45 6.65,99.45L6.65,97.05 4,97.05 4,106.9 6.65,106.9 6.65,104.05 7.45,103.05 10,106.9 13.05,106.9 9.25,101.3 12.6,97.05"/><path fill="#F4F3F1" d="M18.25,97.05L15.7,97.05 15.7,106.9 18.25,106.9 18.25,97.05"/><path fill="#F4F3F1" d="M30.2,97.05L27.85,97.05 27.85,100.25Q27.85,100.75 27.95,101.55 27.95,102.25 27.95,102.3 27.3,101.5 26.6,100.85L22,96.9 21.8,96.9 21.8,106.9 24.15,106.9 24.15,103.7Q24.15,103.15 24.1,102.3L24,101.6 24.4,102.1Q24.95,102.7 25.4,103.1L30,107.05 30.2,107.05 30.2,97.05"/><path fill="#F4F3F1" d="M37.3,97.05L33.8,97.05 33.8,106.9 37.3,106.9Q39.6,106.9 41,105.55 42.45,104.2 42.45,102 42.45,99.7 41,98.35 39.6,97.05 37.3,97.05 M39.85,102Q39.85,104.65 37.2,104.65L36.35,104.65 36.35,99.25 37.2,99.25Q38.55,99.25 39.2,100 39.85,100.7 39.85,102"/><path fill="#F4F3F1" d="M49.4,97.05L45.6,97.05 45.6,106.9 48.15,106.9 48.15,103.8 49.1,103.8 50.9,106.9 53.8,106.9 51.65,103.4Q53.5,102.6 53.5,100.5 53.5,98.75 52.35,97.85 51.3,97.05 49.4,97.05 M48.15,99.25L49.35,99.25Q50.9,99.25 50.9,100.5 50.9,101.8 49.35,101.8L48.15,101.8 48.15,99.25"/><path fill="#F4F3F1" d="M74.5,98.35Q73.05,97.05 70.75,97.05L67.25,97.05 67.25,106.9 70.75,106.9Q73.05,106.9 74.5,105.55 75.9,104.2 75.9,102 75.9,99.7 74.5,98.35 M73.3,102Q73.3,104.65 70.65,104.65L69.8,104.65 69.8,99.25 70.65,99.25Q72,99.25 72.7,100 73.3,100.7 73.3,102"/><path fill="#F4F3F1" d="M63.8,97.05L56.75,97.05 56.75,106.9 63.95,106.9 63.95,104.7 59.35,104.7 59.35,103 63.05,103 63.05,100.9 59.35,100.9 59.35,99.25 63.8,99.25 63.8,97.05"/><path fill="#F4F3F1" d="M42.85,121.9L47.05,121.9 47.8,123.8 49.15,123.8 45.05,114.2 44.85,114.2 40.8,123.8 42.1,123.8 42.85,121.9 M46.65,120.9L43.25,120.9 44.45,117.95Q44.7,117.35 44.95,116.45 44.95,116.55 45.1,117.05 45.25,117.6 45.45,117.95L46.65,120.9"/><path fill="#F4F3F1" d="M56.6,116.2L57.65,115.55Q56.7,114.1 54.9,114.1 53.75,114.1 53,114.75 52.25,115.4 52.25,116.45 52.25,117.5 52.85,118.1 53.35,118.65 54.45,119.15L55.15,119.55Q56.15,119.9 56.5,120.25 56.95,120.7 56.95,121.35 56.95,122 56.35,122.4 55.85,122.75 55.05,122.75 53.4,122.75 52.65,121.25L51.55,121.85Q52,122.75 52.85,123.35 53.8,123.9 55.1,123.9 56.5,123.9 57.4,123.2 58.2,122.5 58.2,121.35 58.2,120.25 57.5,119.55 56.95,118.9 55.6,118.35L54.9,118Q54.15,117.7 53.85,117.35 53.5,117 53.5,116.45 53.5,115.9 53.9,115.55 54.25,115.2 54.95,115.2 55.95,115.2 56.6,116.2"/><path fill="#F4F3F1" d="M25.65,115.45L28.55,115.45 28.55,114.25 21.35,114.25 21.35,115.45 24.3,115.45 24.3,123.8 25.65,123.8 25.65,115.45"/><path fill="#F4F3F1" d="M37.7,115.45L37.7,114.25 31.7,114.25 31.7,123.8 37.85,123.8 37.85,122.65 33,122.65 33,119.55 37.15,119.55 37.15,118.45 33,118.45 33,115.45 37.7,115.45"/></g><g id="Scene 1_1.0"><path fill="#F4F3F1" d="M25.05,34.2Q24.55,34.2 24.15,34.55 23.8,34.9 23.8,35.45 23.8,35.95 24.15,36.25 24.55,36.65 25.05,36.65 25.55,36.65 25.9,36.25 26.25,35.95 26.25,35.45 26.25,34.9 25.9,34.55 25.55,34.2 25.05,34.2"/></g><g id="Scene 1_0.0"><path fill="#F4F3F1" d="M47.95,70.95Q48,71.5 48.45,71.75 48.85,72.05 49.4,71.95 49.95,71.85 50.2,71.4 50.55,71 50.45,70.5 50.35,69.9 49.9,69.65 49.5,69.35 48.95,69.45 48.4,69.55 48.15,70 47.8,70.4 47.95,70.95"/></g><defs/></svg>