<?xml version="1.0" encoding="utf-8"?><svg xmlns:xlink="http://www.w3.org/1999/xlink" id="Scene_1" image-rendering="auto" baseProfile="basic" version="1.1" x="0px" y="0px" width="200" height="200" viewBox="0 0 200 200" xmlns="http://www.w3.org/2000/svg"><g style="display:none;" id="Scene 1_0.13"><path fill="#1D1D1D" d="M163.25,98.55Q163.063,98.488 162.875,98.45 161.019,97.442 159.7,96.35 158.1,95.2 157.15,94 155.39,92.12 153.825,90.325 153.962,90.395 154.1,90.45 155.3,90.95 156.35,91.15 157.793,91.368 159.25,91.475 161.861,93.38 165.2,94.3 168.05,94.35 170.95,94 177.2,93.2 189.25,86.75 195.3,83.5 200.05,80.5 192.25,81.75 182.75,79 178.85,77.85 173.75,75.55 173.3,75.35 168.6,73 163.8,70.6 161.65,69.65 159.726,68.78 157.75,68.95 157.557,68.863 157.3,68.85 156.3,69.15 155.15,69.65 153.6,70.4 151.95,71.65 149.85,73.3 149.15,73.65L148.6,73.95Q147.3,74.7 144.75,75.45 144.658,75.477 144.575,75.5 144.198,74.354 143.9,72.95 143.782,72.408 143.675,71.8 147.446,68.994 150.1,64.7 152.15,61.25 152.5,57.35 153.2,49.55 144.95,47.35 143.872,46.958 142.5,46.85 142.439,38.456 137.35,23.95 134.7,16.3 131.95,10.35L129.45,19.75Q128.05,24.95 122.3,35.2 119.25,40.65 115.15,47.35 113.4,50.5 112.7,52.5 112.286,53.928 112.175,55.4 112.134,55.497 112.1,55.6 112.05,56.35 112.1,57.1 112.2,58.6 113.05,60.65 114.2,63.6 114.6,64.6 114.6,64.7 114.65,64.85 116.157,68.802 117.175,70.475 116.873,73.389 117.3,76 117.65,77.5 118.1,78.7 118.5,79.9 118.75,80.5 119.8,83.15 122.7,86.4 123,86.65 123.2,86.95 126.4,90.4 129.45,92.3 131.65,93.7 136.25,96.2 140.45,98.4 142.4,99.7 144.55,100.85 147.15,102.35 152.3,105.35 154.1,107.1 155.215,108.215 156.25,109.425 156.294,109.508 156.35,109.6 157,110.25 157.55,110.95 159.05,113 159.75,113.85 166.6,123.25 168.45,125.55 172.8,131.25 173.7,132.4 173.95,132.7 175.3,134.15L175.35,134.2 175.35,134.25Q175.6,134.35 175.75,134.35 176,134.35 176.25,134.15 176.4,133.95 176.4,133.75L176.3,133.35Q170.1,123.25 166.95,118.4 161.4,109.95 159.8,106.35 159.672,106.03 159.575,105.75 159.287,104.921 159.25,104.4 159.25,103.9 159.5,103.45 160.1,102.7 161.6,103.05 161.75,103.1 161.75,103.15 161.819,103.142 161.875,103.125 165.899,104.713 170.5,105.9 179.75,108.3 190.4,108 191.05,107.9 190.95,107.35 190.95,106.75 190.35,106.75L181.95,105.2Q172.25,103.05 165.8,99.9 164.45,99.25 163.25,98.55 M157.7,72.2Q158.2,72.15 158.7,72.1 158.75,72.1 158.85,72.15 161.827,74.44 160.875,76.5 159.4,74.439 157.5,72.175 157.592,72.2 157.7,72.2 M116.525,52.775Q116.576,52.597 116.65,52.45 116.869,52.468 117.1,52.525 116.817,52.646 116.525,52.775"/><path fill="#FFF" d="M167.2,82.85Q164.85,80.95 164.2,79.25 173.25,84.25 181.1,84.2 183.55,84.15 185.6,83.65L187.2,83.15Q181.6,82.9 170.55,77.45 160.4,72.5 158.85,72.15 161.827,74.44 160.875,76.5 159.4,74.439 157.5,72.175 157.289,72.135 157.125,72 156.063,72.408 154.95,73.15 154.65,73.35 154.35,73.55 150.6,76.3 149.75,76.75 147.577,77.917 145.7,78.45 142.922,79.228 140.8,78.6 140.8,78.55 140.75,78.5 140.697,78.565 140.65,78.625 140.179,77.524 139.9,76.45 139.45,74.75 139.15,72.25 139.1,71.45 139.05,70.5L139,70.3Q139.1,69.6 139.05,68.85 139.046,68.786 139.05,68.725 140.006,68.805 141.1,68.85 142.043,68.303 142.9,67.625 145.206,65.811 146.95,63.05 148.2,60.75 148.45,58.1 148.9,52.9 143.35,51.45 142.764,51.254 142.125,51.175 141.935,51.161 141.75,51.15 139.95,50.95 139.05,51.7L138.2,52.3Q137.3,53.25 136.8,54.95 136.45,55.3 136,55.6 135.7,55.767 135.325,55.925 135.15,56.017 134.95,56.1 133.95,56.45 133.45,57.95 133.349,58.243 133.3,58.525 133.019,59.788 133.55,60.85L133.8,61.6Q133.746,61.659 133.7,61.725 133.535,61.823 133.375,61.925L132.2,61.05 130.85,60.85 129.6,60.9Q126.35,61.1 123.95,63.3 121.6,65.5 121.3,68.55L121.25,68.6Q121.04,71.305 121.475,73.825 121.966,76.732 123.3,79.4 124.6,82.15 126.45,84.15 127.1,84.95 127.9,85.6 130.65,88 133.5,89.35L138.55,91.85Q144.3,94.55 146.9,96.2 148.7,97.4 151.05,99.75 151.6,100.35 152.2,100.9L152.75,101.2Q153.7,102.2 154.7,101.2 155.55,100.25 155.45,99.3 155.4,98.9 154.15,97.25 153.85,96.85 153.6,96.4 152.35,94.65 151.65,93.5 149.35,89.8 145.8,86.4L145.65,86.25Q144.819,85.277 144.125,84.4 144.678,84.529 145.3,84.65 147.651,85.846 150.925,86.775 151.757,87.027 152.65,87.25 153,87.35 153.35,87.45L155.3,87.825Q153.172,85.408 152.8,83.25 152.6,81.8 153.1,81.05 155.497,85.878 159.3,88.425 160.962,89.528 162.9,90.2 163.05,90.25 163.1,90.25 165.1,90.95 167.2,91.05L168.9,91Q168.36,90.793 167.85,90.55 165.831,89.658 164.15,88.4 161.947,86.78 160.3,84.55 158.7,82.35 158.15,80.6 161.891,84.489 165.75,86.55 169.688,88.623 173.75,88.8 176.25,88.85 178.5,88.25L180.25,87.6Q171.9,86.6 167.2,82.85"/><path fill="#1D1D1D" d="M142.6,59.3Q143.5,58.7 143.7,57.7 143.9,56.6 143.3,55.75 142.7,54.8 141.65,54.6 140.6,54.45 139.7,55.05 138.8,55.65 138.6,56.7 138.4,57.75 139,58.6 139.65,59.5 140.65,59.75 141.7,60 142.6,59.3"/><path fill="#FFF" d="M136.65,34.65L136.15,32.45Q134.1,41.6 128.95,46.95 127.212,48.756 125.625,49.75 124.901,50.213 124.2,50.5 124.382,50.247 124.55,50 131.578,40.014 132.7,30.7 133.25,25.85 132.35,23.15 131.2,27.3 125.25,37.35 124.7,38.3 121.1,44.4 117.8,50 116.65,52.45 116.869,52.468 117.1,52.525 116.817,52.646 116.525,52.775 116.513,52.834 116.5,52.9 115.9,54.3 115.8,55.7 115.7,56.7 115.95,57.65 116,57.7 117,60.6 117.3,61.3 118.1,63.2 118.45,64.299 118.725,65.525 118.786,65.41 118.85,65.3 119.85,61.8 122.95,60.15L125.85,59.2Q128.441,58.762 130.575,58.675 130.274,57.805 130.45,56.75 130.95,55.55 131.6,54.9 131.662,54.848 131.725,54.8 131.686,54.774 131.65,54.75L131.475,54.55Q130.458,55.314 129.35,55.95 126.65,57.55 124.7,57.9 127.717,55.603 129.975,53.125 128.623,52.063 127,51.45 126.2,51.2 127,50.75 129.822,49.445 132.625,49.8 132.802,49.542 132.975,49.275 135.644,45.148 136.45,40.55 137.05,37.55 136.65,34.65"/><path fill="#FFF" d="M138.2,46.9Q137.813,47.568 137.4,48.2L138.175,47.65 138.2,46.9"/><path fill="#FFF" d="M135.85,50.325Q135.736,50.468 135.625,50.6L135.675,50.625Q135.738,50.535 135.8,50.45 135.825,50.391 135.85,50.325"/><path fill="#1D1D1D" d="M54.3,95.2L54.3,95.25Q52.1,105.15 52.7,114.2 52.95,118 53.6,121.45 53.558,122.805 53.625,123.95 53.487,124.357 53.35,124.85 53.3,124.9 53.1,124.95 53.05,125 53,125 52.603,125.132 51.425,125.175 50.949,124.688 50.4,124.15 49.05,123.25 47.05,121.5 44.75,119.55 40.5,115.4 36.5,111.55 28.1,104.05 28,103.85 27.8,103.8 27.55,103.75 27.35,103.9 27.15,104 27.1,104.25 26.95,104.7 27.3,104.95 27.8,105.65 28.6,106.6L34,112.75Q42.25,121.4 43.5,122.95 45,124.5 46,125.55 47.8,127.5 49.1,129.45 49.45,129.9 49.8,130.6 49.977,130.986 50.2,131.25 50.274,131.45 50.35,131.65 50.55,132 50.75,132.35 51.15,133.05 51.5,133.95L51.45,133.9Q51.45,135.25 51.55,136.55 51.6,138.25 51.8,139.85 51.905,141.214 52.125,142.55 51.649,142.684 51.175,142.825 48.441,141.357 45.3,140.4 44.35,140.35 43.45,140.25 36.3,140.05 24.75,144.25 19,146.4 14.65,148.55L23.2,150.6Q27.9,151.75 38,156.35 48.05,161.25 50,162.15 53,163.55 54.9,164.1 56.35,164.5 57.65,164.6 57.721,164.586 57.8,164.575L57.85,164.6Q57.95,164.558 58.05,164.525 58.886,164.301 59.075,164 59.903,163.504 60.9,162.65 61.702,161.848 62.3,161.275 65.409,163.725 69.15,165.15 71.15,165.95 73.3,166.35L79.1,167 79.05,166.95 79.25,166.95Q81.65,167.05 83.75,166.15 85.05,165.65 85.75,165.1 85.792,165.092 85.825,165.075L85.85,165.1Q87.1,165.75 87.9,167.2 89.25,169.35 89.5,172.05 90.25,171.3 91,169.95 92.45,167.25 92.1,164.35 91.918,163.949 91.95,163.1 92.367,162.881 92.75,162.65 93.85,161.95 94.6,160.8L94.95,160.25Q95.95,158.35 96.1,156.5 96.3,154.95 95.65,153.4L95.575,153.3Q98.275,151.007 100.65,148.1 106.75,140.7 107.45,135.3 107.6,133.6 107.25,132.25L106.85,131.3 101.2,135.75Q98.35,137.95 94.4,140.05 89.55,142.7 85.55,143.55 84.6,143.75 84.05,143.8 81,144.25 77.35,143.25 76.403,142.888 75.775,143 73.683,141.375 71.45,139.05 70,137.6 68.55,135.85L67.7,134.8Q67.3,134.35 66.95,133.9 65.35,132.25 63.55,130.65 62.8,129.95 61.95,129.3 61.187,128.467 60.45,127.2 58.85,124.35 57.55,119.8 55.75,113.1 55.45,103.6 55.25,98.9 55.5,95.45 55.55,95.3 55.4,95.1 55.3,94.85 55.05,94.8 54.8,94.75 54.6,94.9 54.35,95 54.3,95.2 M57.425,161.875Q57.107,161.758 56.75,161.65 56.789,161.548 56.825,161.45 57.156,161.603 57.5,161.75 57.455,161.81 57.425,161.875 M84.825,147.2Q84.756,147.183 84.675,147.175 84.736,147.166 84.8,147.15 84.819,147.171 84.825,147.2"/><path fill="#FFF" d="M59.2,133Q59.1,132.9 59.05,132.85 57.55,131.9 56,132.1 54.3,132.3 55.45,133.7 55.7,134.05 56,134.35 57.25,136.05 58.2,138.3L59.1,140.8Q59.216,141.302 59.375,141.8 60.871,141.857 62.35,142.1 62.35,142.052 62.3,142.05 62.402,142.051 62.5,142.1 65,142.65 66.9,143.75 69,145.05 69.45,147.15 69.5,147.15 69.5,147.2 69.7,148.25 69.5,149.05 69.1,148.7 68.75,148.4 68.3,148.05 67.85,147.7 67.25,147.25 66.65,146.9L66.6,146.9Q65.05,146.15 63.15,145.7 62.45,145.55 61.75,145.4 61.411,145.337 61.1,145.275 60.162,145.138 59.45,145.1 57.028,145.075 55.1,145.35 55.786,145.877 56.45,146.45 59.45,149.05 61.25,152.15 62.15,153.7 62.5,154.7 62,154.1 61.45,153.6 56.905,148.558 52.175,146.025 50.737,145.243 49.275,144.7L49.25,144.7Q45.85,143.4 43.85,143.65 47.528,145.394 50.475,147.8 52.187,149.19 53.65,150.8L56.45,154.5Q53.331,151.678 50.25,149.675 44.521,145.912 38.95,145 34.65,144.3 32.15,145.25 40.35,146.9 46.15,151.1 48,152.35 49.35,153.75L50.35,154.9Q39.9,148.95 31.6,148.05 27.4,147.55 25.35,148.25 29.15,149.2 39.05,154.05 42.85,155.9 46,157.4 52.05,160.3 54.3,161.1 55.6,161.55 56.75,161.65 56.789,161.548 56.825,161.45 57.156,161.603 57.5,161.75 57.55,161.7 57.6,161.7 58.3,161.45 58.95,160.9 59.165,160.728 60.475,159.475 60.703,159.283 60.95,159.05 61.8,158.2 62.4,157.65 63.45,156.65 64.8,155.7L66,154.85 66.1,154.85Q66.279,154.736 66.45,154.625 68.875,153.137 70.6,152.95 70.9,152.95 71.25,152.9L69.5,154.3Q69.4,154.35 69.35,154.45 69.25,154.5 69.15,154.65 67.747,155.846 66.3,157.225 66.323,157.342 66.35,157.45 66.686,158.882 67.775,160.075L67.8,160.1Q68.676,161.02 70,161.8L73.7,163.35Q75.9,163.85 80.5,163.45 81.65,163.3 82.45,162.95 83.6,161.95 84.7,161.4L84.85,161.35Q86.7,160.7 87.7,160.55 88.55,160.4 89.25,159.9L89.45,159.7Q90.25,159.1 90.65,158.5 91.403,157.371 91.55,156.25 91.592,156.021 91.6,155.8 91.6,155.6 91.55,155.4 91.37,154.033 90.4,152.925 90.005,152.493 89.5,152.1L89.2,151.85Q87.989,151.108 86.05,150.55 85.688,150.446 85.3,150.35 85.105,150.298 84.9,150.25 84.15,150.05 83.2,149.9L81.7,149.7Q80.5,149.65 78.45,148.95 76.4,148.2 74.4,147.15L71.15,145.3Q69.127,143.94 67.625,142.225 66.873,141.359 66.25,140.4 65.9,139.9 65.55,139.45 62.75,135.55 59.2,133"/><path fill="#1D1D1D" d="M88.05,154.6Q87.5,153.85 86.55,153.6 85.6,153.35 84.75,153.8 84.7,153.85 84.65,153.9 83.8,154.4 83.55,155.4 83.3,156.35 83.85,157.25 84.35,158.1 85.35,158.35 86.35,158.6 87.25,158.05 88.1,157.55 88.35,156.6 88.6,155.6 88.05,154.7 88,154.65 88.05,154.6"/><path fill="#FFF" d="M84.8,147.15Q84.819,147.171 84.825,147.2 87.845,147.513 90.1,148.5 92.151,149.312 93.575,150.525 99.071,145.851 103.2,138.4 99.3,141.5 94.05,144.05 88.95,146.5 84.8,147.15"/><animate attributeName="display" repeatCount="indefinite" dur="0.9s" keyTimes="0;0.722;1" values="none;inline;none"/></g><g style="display:none;" id="Scene 1_0.6"><path fill="#1D1D1D" d="M171,123.9Q171.028,123.878 171.05,123.85 171.8,121.3 172.15,118.5 173.65,107.4 168.75,96.15 164.4,86.05 159.25,82.55 157.6,81.45 156.05,81.1L154.9,81 156.4,89.1Q157.2,93.2 157.35,98.35 157.415,102.465 156.925,105.825 156.348,105.051 155.7,104.3 153,101.35 149.4,99.85 142.15,96.95 137.6,104.15 136.9,105.1 136.35,106.4 135.25,109.05 135.85,110.65L136.2,111.65Q136.75,112.85 137.9,113.85 137.991,113.972 138.075,114.1L137.65,114.7Q135.996,116.759 135.65,119.25 135.343,118.992 135,118.7 133.35,117.4 131.8,116.65 130.7,116.15 129.6,115.85L129.55,115.85Q129.272,115.695 128.9,115.65 126.5,116.2 124.65,117.85 122.65,119.65 118.4,123.75 114.15,127.8 113.8,128.15 109.15,132.25 105.35,134.8 96.2,141 87.25,142.65 93.55,143.85 101.25,144.85 116.65,146.8 123.8,145.35 127.05,144.7 130.05,143.55 130.991,142.952 131.85,142.3 131.573,142.594 131.3,142.9 129.4,145.1 127.05,147.35 126.1,148.55 124.55,149.65 123.107,150.674 121.2,151.7 121.094,151.721 121,151.75 119.75,152.4 118.45,152.95 111.85,155.95 102.15,157.85L93.65,159.15 93.65,159.2Q93.05,159.15 93.1,159.7 92.95,160.3 93.6,160.4 104.25,161.05 113.5,158.9 118.069,157.782 122.125,156.325 122.183,156.342 122.25,156.35 122.3,156.35 122.4,156.3 123.95,155.95 124.45,156.8 124.75,157.2 124.75,157.7 124.65,158.35 124.1,159.65 124.069,159.737 124.05,159.825 122.304,163.389 116.65,171.55 113.35,176.3 106.9,186.25L106.75,186.6Q106.75,186.85 106.95,187.05 107.15,187.25 107.35,187.3 107.6,187.3 107.75,187.15L107.8,187.15 107.9,187.05Q109.25,185.7 109.55,185.35 110.5,184.3 114.9,178.7 116.8,176.4 123.95,167.2 124.65,166.45 126.25,164.4 126.8,163.7 127.45,163.05 127.55,162.9 127.625,162.75 128.697,161.607 129.8,160.55 131.65,158.85 136.9,155.95 139.5,154.55 141.75,153.45 143.7,152.25 147.95,150.1 152.6,147.8 154.9,146.4 158,144.6 161.25,141.25 161.5,141 161.75,140.75 164.7,137.55 165.85,134.9 166.136,134.423 166.55,133.3 169.47,129.102 171,123.9 M129,119.2Q129.3,119.25 129.55,119.35 128.309,120.949 127.225,122.45 127.285,121.123 128.55,119.3 128.65,119.25 128.7,119.2 128.792,119.175 128.875,119.15 128.94,119.178 129,119.2 M160.3,111.775Q164.074,111.269 166.325,115.65 163.888,112.817 160.475,112.225 160.384,112 160.3,111.775 M141.8,122.55Q139.508,121.847 138.3,121.15L137.9,120.925Q138.833,120.159 139.95,119.55L140.875,119.1 140.9,119.15Q141.271,119.893 142.2,120.675 142.176,120.788 142.15,120.9 141.966,121.688 141.8,122.55"/><path fill="#FFF" d="M163.75,122.95L163.7,122.9Q163.45,119.85 161.15,117.6 159.779,116.229 158.075,115.575 157.641,115.889 157.35,115.95 157.315,115.638 157.275,115.325 156.977,115.248 156.675,115.2 156.86,114.689 157.05,114.15 156.635,112.373 155.775,110.7 154.789,108.731 153.2,106.9 151.35,104.95 148.95,103.95 144.1,102 141.05,106.9 140.65,107.5 140.3,108.35 139.6,110 140,111.1L140.35,112.05Q141,113.2 142.5,114.15 142.75,114.6 142.85,115.1 143,115.6 143,116.3 143.025,116.817 143.35,117.3 143.69,117.818 144.35,118.3 145.7,119.25 147.2,119L147.95,119Q147.75,119.35 147.5,119.7 146.872,120.279 146.375,120.575L146.3,120.7Q146,121.9 145.9,122.75 145.85,123.5 145.9,124.15L145.9,124.2Q146.106,124.321 146.3,124.45 146.5,124.65 146.45,125.15 146.35,125.35 146.3,125.55 146.25,125.75 146.05,125.9 146,125.9 146,125.95 145.861,126.004 145.725,126.05 143.67,126.728 141.1,126.05 139.196,125.552 137,124.3 136.15,123.85 132.45,120.95 132.15,120.7 131.9,120.55 130.7,119.75 129.55,119.35 128.309,120.949 127.225,122.45 127.285,121.123 128.55,119.3 127,120.2 117.9,128.9 108.1,138.25 102.15,140.55L104,140.45Q106.4,140.2 109.05,139.35 115.58,137.212 121.7,131.9 123.596,130.249 125.45,128.3 125.4,130.2 123.55,132.95 122.247,134.923 120.275,136.7 116.8,139.848 111.25,142.4L113.45,142.45Q115.955,142.261 118.45,141.35 118.605,141.305 118.75,141.25 121.721,140.11 124.275,138.1 129.112,134.322 132.45,127.45 132.6,129.4 131.65,132.15 130.703,135.043 128.85,137.525 127.257,139.694 124.975,141.55 124.892,141.626 124.8,141.7L126.7,141.15Q128.85,140.25 130.85,138.8 130.9,138.75 131,138.7 132.477,137.602 133.65,136.275 137.294,132.211 138.05,126.05 138.95,126.65 139.25,128.1 139.827,130.809 137.75,134.775 139.685,133.973 141.25,133.05 143.019,132.573 144.25,131.975 144.045,132.492 143.8,133 142.75,135.65 138.85,139.95L138.7,140.05Q135,143.35 132.65,147.05 131.95,148.2 130.65,149.9 130.3,150.3 130,150.7 128.7,152.35 128.7,152.75 128.5,153.65 129.4,154.6 130.3,155.65 131.3,154.75L131.85,154.35Q132.5,153.85 133.1,153.25 135.45,151 137.25,149.85 139.95,148.3 145.75,145.7L150.9,143.4Q153.75,142.1 156.6,139.8 157.4,139.1 158.1,138.4 158.368,138.118 158.625,137.825 160.197,136.027 161.4,133.75 163.95,128.8 163.75,122.95"/><path fill="#1D1D1D" d="M148.45,110Q148.15,109 147.2,108.45 146.25,107.95 145.25,108.25 144.25,108.6 143.7,109.5 143.2,110.5 143.5,111.5 143.85,112.5 144.75,113.05 145.7,113.55 146.75,113.2 147.75,112.95 148.25,112 148.8,111.05 148.45,110"/><path fill="#FFF" d="M167.85,120.6L167.875,120.575Q167.914,120.395 167.95,120.25 168.109,119.393 168.225,118.5 168.482,116.597 168.55,114.55 168.95,101.65 160.25,88.55 161.35,94.15 161.2,100.8 161.07,106.457 159.85,110.725 160.083,111.247 160.3,111.775 164.074,111.269 166.325,115.65 163.888,112.817 160.475,112.225 160.586,112.562 160.7,112.9 160.36,113.304 160.05,113.65L162.25,114.45Q165.3,116.25 166.25,119.7 166.863,120.899 167.225,122.2 167.455,121.568 167.8,120.8 167.828,120.699 167.85,120.6"/><path fill="#1D1D1D" d="M83.4,59.35Q83.2,59.4 83.15,59.6 74.75,67.05 70.7,70.9 66.45,75.05 64.1,76.95 62.15,78.75 60.8,79.65 60.241,80.191 59.75,80.7 59.584,80.615 59.4,80.55 59.2,80.55 59.1,80.55 58.689,80.623 58.35,80.675 58.784,79.223 59.05,77.3 60.25,74.05 61.15,70.4 63.35,61.5 62.9,51.45L62.9,51.4Q62.85,51.15 62.7,51 62.5,50.8 62.25,50.8 62.05,50.85 61.85,51.05 61.65,51.2 61.7,51.4 61.3,54.8 60.35,59.45 58.4,68.75 55.45,75 54.677,76.621 53.9,77.975 53.335,78.229 52.8,79.15 51.9,80.25 50.7,82.95 50.05,85.1 49.15,86.55 48.5,87.35 47.85,88.2 46.3,90.1 45.1,92 45.004,92.145 44.925,92.3 44.785,91.972 44.65,91.65 43.297,88.453 41.35,85.35 41.131,82.567 40.05,79.6 39.5,78.8 39.05,78.05 38.1,76.9 37.15,75.85 31.4,69.6 16.9,62.4 9.65,58.8 3.55,56.4L8.3,64.9Q10.95,69.6 14,81 15.55,86.95 17.35,94.7 18.25,98.15 19.2,100.05 19.95,101.5 20.95,102.7 21.483,102.987 21.975,103.175 22.242,103.476 22.55,103.8 23.1,104.25 23.75,104.6 25,105.3 27.1,105.65 30.15,106.2 31.15,106.4 31.25,106.5 31.35,106.5 32.354,106.701 33.225,106.85 32.112,107.542 31,107.95 30.75,108.05 30.55,108.1L30.45,108.1Q30.4,108.15 30.3,108.2 27.15,109.1 25,110.5 22.8,111.9 21.55,113.7L20.35,116.4Q20.05,117.95 20.55,119.55 21,121.25 22.4,123L22.85,123.45Q23.75,124.5 24.95,124.9 25.383,125.072 25.85,125.225 26.024,126.105 25.95,126.55 26.15,129.4 28.05,131.8 29,133.05 29.95,133.65 29.7,130.85 30.6,128.55 31.15,127 32.25,126.1L32.3,126.1Q33.1,126.45 34.45,126.75 36.65,127.2 39.05,126.7L39.2,126.7 39.15,126.75 44.8,125.05Q46.8,124.2 48.65,123.1 52.45,120.75 55.25,117.3 55.832,116.386 56.375,115.475L56.4,115.5Q57.4,116.1 59.05,117.15 60.35,117.95 61.45,118.25 61.771,118.357 62.075,118.425 62.431,118.573 62.9,118.7 64.4,118.7 66,118.35 68.05,117.85 71.35,116.4 73.35,115.45 84.05,110.4 94.8,105.5 100.15,104.6L109.7,102.95Q104,99.7 96.6,96.35 81.8,89.7 73.35,89.15 72.3,89.1 71.15,89.15 67.167,90.174 63.95,92.15 63.831,92.143 63.7,92.15 63.1,92.25 62.45,92.3 61.642,92.388 60.85,92.525 60.803,92.16 60.75,91.8 60.603,90.475 60.3,89.2L60.3,89.15Q60.507,88.278 60.75,87.5 60.85,87.1 60.95,86.75L60.95,86.7Q61.172,86.456 61.35,86.1 61.7,85.4 62.05,84.95 63.4,82.95 65.2,81.05 66.15,79.95 67.7,78.45 68.95,76.9 77.2,68.2L82.65,62.15Q83.45,61.2 83.95,60.5 84.25,60.25 84.15,59.8 84.1,59.55 83.9,59.45 83.65,59.3 83.4,59.35 M22.05,97.25Q22.361,96.976 22.875,96.75 22.697,97.601 22.55,98.5 22.331,98.088 22.15,97.65 22.05,97.45 22.05,97.25"/><path fill="#FFF" d="M23.9,70.55L22,69.3Q26.9,77.3 27,84.7 26.994,85.124 26.975,85.525 26.843,88.693 26,90.6 25.806,89.326 25.575,88.1 23.504,77.325 18.25,70.5 15.3,66.65 12.8,65.3 14.85,69.1 17.6,80.45 17.85,81.5 19.55,88.4 21.05,94.75 22.05,97.25 22.361,96.976 22.875,96.75 22.697,97.601 22.55,98.5 23.022,99.417 23.65,100.15 23.786,100.371 23.875,100.6 24.181,100.741 24.5,100.9 25.25,101.45 26.15,101.8 26.25,101.8 29.15,102.4 29.85,102.55 31.9,102.9 33.947,103.436 36.325,104.4 38.918,101.918 41.55,97.9 42.01,97.199 42.475,96.475 42.241,95.723 41.95,94.95 41.8,94.4 41.55,93.9L40.65,92.125Q39.989,95.439 38.3,98.2 37.35,99.9 36.4,100.8 36.7,99.85 36.95,98.95 38.961,91.452 37.575,85.65 37.297,84.513 36.9,83.45 36.7,83 36.5,82.5 35.8,80.8 34.7,79.5L33.55,78.25Q33.846,79.443 34.025,80.625 34.895,85.985 33.5,90.95 32.7,93.95 31.55,95.55 32.731,87.57 30.925,81.375 29.889,77.847 27.9,74.9 26.15,72.35 23.9,70.55"/><path fill="#FFF" d="M47.45,97.2Q47.2,97.7 46.95,98.25 46.765,98.715 46.55,99.175 45.448,101.489 43.55,103.475 43.301,103.709 43.05,103.95L40.15,106.4Q40.031,106.495 39.9,106.6 39.583,106.849 39.25,107.1 37.902,108.081 36.45,108.9 34.65,109.9 33.45,110.25L32,110.65Q31.15,110.95 30.4,111.25 27.85,112.45 26.45,113.7L26.25,114Q24.75,115.7 24.85,117.65 24.8,117.8 24.8,118 25.15,119.35 26.25,120.5 26.85,121 27.7,121.45L27.9,121.6Q28.7,121.95 29.5,122 30.6,121.9 32.5,122.25L32.65,122.3Q33.85,122.55 35.15,123.35 36.05,123.55 37.15,123.5 41.8,123.05 43.85,122.15L47.15,119.95Q50.4,117.2 49.95,113.95L49.95,114Q49.85,113.15 49.35,112.4 49.176,111.554 49.15,110.75 48.624,110.441 48.1,110.15 47.95,110.05 47.9,110 47.75,109.95 47.7,109.85L45.45,108.8Q45.8,108.7 46.15,108.65 47.512,108.468 49.3,108.875 50.458,109.137 51.8,109.65L51.85,109.6 53.45,110.3Q55.15,111.05 56.55,111.9 57.138,112.231 57.925,112.75 58.196,112.938 58.5,113.15 60.7,114.6 61.05,114.75 61.765,115.068 62.475,115.175 62.768,115.076 63.1,115 63.184,115.003 63.275,115 64.587,115.023 65.95,114.6 68.45,113.8 74.8,110.75 78.15,109.2 82.2,107.25 92.7,102.2 96.9,101.4 94.3,100.25 89.5,100.4 80.166,100.69 69.7,106.7 69.355,106.891 69,107.1L69.9,105.8 69.925,105.775Q71.165,104.089 72.95,102.7 78.8,97.95 88.05,96.75 84.9,95.25 80,95.75 74.686,96.213 69.725,99.2 65.563,101.696 61.65,105.95L64.05,101.5Q66.05,98.599 68.9,96.425 71.092,94.717 73.8,93.45 72.225,93.104 70.2,93.5 69,93.719 67.65,94.2 65.613,94.874 63.7,96.05 59.232,98.787 55.45,104.25 55,104.8 54.55,105.5 54.7,104.3 55.35,102.4 56.432,99.394 58.475,96.875 58.414,96.885 58.35,96.9 57.2,97.15 55.6,97.85 54.8,98.15 54,98.5 51.85,99.5 50.1,100.75L50.05,100.75Q49.4,101.3 48.7,102 48.2,102.45 47.75,103 47.35,103.5 47,103.95 46.65,103.1 46.7,101.85 46.75,101.8 46.75,101.75 47,99.25 49.35,97.25 51.45,95.55 54.25,94.25 54.35,94.2 54.45,94.15L54.5,94.2Q54.588,94.167 54.675,94.125 55.158,92.079 55.95,90.45 56.15,90.05 56.35,89.7 57.25,88.1 55.5,88.2 53.9,88.3 52.7,89.5 52.6,89.6 52.55,89.65 49.5,92.8 47.45,97.2"/><path fill="#1D1D1D" d="M29.45,114.9Q28.55,115.3 28.15,116.15 28.2,116.2 28.15,116.25 27.8,117.2 28.2,118.15 28.65,119.05 29.55,119.4 30.5,119.8 31.45,119.35 32.4,118.9 32.75,118 33.15,117.05 32.7,116.15 32.3,115.2 31.35,114.85 31.3,114.8 31.25,114.75 30.35,114.5 29.45,114.9"/><animate attributeName="display" repeatCount="indefinite" dur="0.9s" keyTimes="0;0.333;0.722;1" values="none;inline;none;none"/></g><g id="Scene 1_0.0"><path fill="#1D1D1D" d="M123.75,46.6L130.45,42Q131.4,41.25 132.1,40.65 132.45,40.55 132.45,40.05 132.45,39.8 132.3,39.65 132.1,39.45 131.85,39.45 131.65,39.45 131.55,39.6 121.6,44.9 116.8,47.7 111.65,50.7 109,52.05 106.6,53.3 105.1,53.85 104.397,54.265 103.775,54.65 102.652,54.314 102.3,54.05 102.25,54.05 102.25,54 102.05,53.9 102,53.75 101.988,53.342 101.95,52.975 102.313,51.868 102.6,50.5 104,47.3 105.15,43.7 107.95,35 108.15,24.9L108.15,24.85Q108.15,24.6 107.95,24.45 107.75,24.25 107.55,24.25 107.3,24.25 107.15,24.45 106.95,24.6 106.95,24.8 106.35,28.15 105.05,32.75 102.5,41.9 99.15,47.95 97.251,51.304 95.45,53.45L94.9,54.075Q93.727,55.335 92.6,56.1 91.65,56.55 90.7,57.05 88.55,58.15 86.65,59.4 86.2,59.75 85.75,60.05L84.7,60.875Q84.596,58.481 84.15,56.1 83.4,51.7 81.65,47.3 80.09,43.401 78.075,40.35 78.038,40.252 78,40.15 77.45,39.4 76.95,38.65 76,37.5 75.05,36.45 69.2,30.3 54.6,23.25 47.35,19.75 41.2,17.45L46.05,25.9Q48.75,30.55 51.95,41.9 53.6,47.85 55.5,55.55 56.45,59 57.4,60.9 58.2,62.35 59.2,63.5 59.7,64.1 60.25,64.55 61.35,65.55 63.4,66.4 66.3,67.7 67.3,68.1 67.331,68.131 67.375,68.15 67.306,68.154 67.25,68.15 67,68.15 66.75,68.1L66.65,68.1Q66.6,68.1 66.5,68.1 63.25,67.65 60.7,68.05 58.15,68.4 56.3,69.55L54.1,71.5Q53.15,72.8 52.95,74.45 52.65,76.2 53.25,78.35L53.45,78.95Q53.85,80.25 54.75,81.15 55.105,81.505 55.5,81.85 55.317,82.688 55.1,83.05 54.05,85.75 54.8,88.7 55.2,90.25 55.8,91.15 56.7,88.55 58.5,86.75 59.6,85.6 61,85.25 61.55,85.95 62.65,86.75 64.5,88.05 66.85,88.55L67.05,88.6 67,88.65 72.8,89.4Q75,89.5 77.1,89.2 81.55,88.65 85.5,86.65L85.55,86.625Q86.055,87.761 86.85,89.55 87.45,91 88.3,91.95 88.805,92.501 89.3,92.975 89.354,93.033 89.4,93.1 90.55,94.05 92,94.8 93.9,95.8 97.3,96.75 99.45,97.35 110.95,100.3 122.35,103.5 127,106.2L135.4,111.05Q133.1,104.95 129.6,97.6 122.55,83 116.4,77.2 116.039,76.862 115.65,76.525L115.65,76.5Q113.45,74.55 110.45,72.85 109.8,72.5 109.15,72.2 104.85,70 100,68.75 100,68.7 100.05,68.7 100.011,68.69 99.975,68.675 100.512,67.213 101,65.65 101.4,64.35 101.7,63.05L101.65,63.1Q102.25,62.35 102.8,61.75 103.05,61.4 103.25,61.15 103.363,61.003 103.475,60.85 103.819,60.644 104.15,60.25 104.65,59.65 105.1,59.3 106.85,57.7 109.05,56.25 110.25,55.45 112.1,54.3 113.7,53.15 123.75,46.6 M101.65,73.25Q97.5,73.75 94.05,75.75 92.35,76.75 91.45,77.6 92.25,77.4 93,77.2 102.1,74.75 108.8,77.35 110.924,78.164 112.325,79.175 113.352,79.914 114,80.75 112.922,80.466 111.85,80.275 106.37,79.259 101.3,80.6L96.65,82.55Q104.255,81.52 110.2,83.175 114.078,84.244 117.25,86.45 121.25,89.25 122.75,92.4 114.85,87.4 107.4,87.3 106.776,87.273 106.175,87.3 104.519,87.333 103.05,87.7L101.5,88.15Q102.755,88.357 103.95,88.6 114.711,90.8 121.5,96.15 125.3,99.15 126.6,101.7 122.85,99.6 111.55,96.7 107.2,95.6 103.65,94.65 96.8,92.85 94.4,91.9 92.987,91.364 92,90.45L91.95,90.4Q91.15,89.75 90.65,88.9 90.45,88.6 89.35,86 89.008,85.144 88.7,84.45 88.576,84.134 88.45,83.85 87.75,82.35 86.65,80.7L85.65,79.2 85.6,79.15Q84.515,77.718 83.425,76.7 82.165,75.519 80.9,74.9 80.5,74.7 80.1,74.55L81.45,76.8Q81.45,76.9 81.5,77 81.55,77.15 81.65,77.3 82.042,78.075 82.425,78.875 82.293,79.299 82.2,79.75 82.25,80.65 82.05,81.45L82.05,81.4Q81.1,84.55 77.05,85.75L73.1,86.35Q70.85,86.35 66.45,84.9 65.45,84.45 64.7,83.9 63.85,82.65 62.85,81.9L62.75,81.8Q61.15,80.7 60.15,80.35 59.4,79.95 58.85,79.35L58.65,79.15Q58.05,78.35 57.8,77.7 57.25,76.15 57.5,74.75 57.55,74.6 57.65,74.45 58.35,72.65 60.45,71.7L60.75,71.55Q62.5,70.95 65.35,70.95 66.15,70.95 67.05,71L68.55,71.25Q69.75,71.45 71.85,71.25 73.929,71.061 76,70.55 76.129,70.53 76.25,70.5L76.3,70.5 79.85,69.45 79.9,69.425Q80.161,69.33 80.425,69.225 83.511,68.006 85.8,65.9 86.25,65.5 86.65,65.15 90.3,61.95 94.4,60.35 94.45,60.3 94.6,60.25 96.25,59.65 97.7,60.2 99.3,60.85 97.85,61.95 97.5,62.15 97.2,62.45 95.6,63.75 94.15,65.75L92.65,67.95Q88.85,68.05 86.7,69.85 86.65,69.85 86.65,69.9 85.6,70.8 85.25,71.7 86,71.55 86.7,71.45 87.6,71.35 88.45,71.25 89.41,71.167 90.3,71.15 90.476,71.15 90.65,71.15L90.7,71.15Q93.35,71.2 96.25,71.8 97.25,72 98.25,72.25 98.384,72.283 98.525,72.325 100.388,72.779 101.65,73.2 101.701,73.22 101.75,73.25 101.701,73.245 101.65,73.25 M56.1,31.35Q61.91,38.723 64,50.775 64.052,51.057 64.1,51.35 64.38,50.68 64.575,49.85 65,48.031 65,45.45 64.8,38.05 59.8,30.1L61.75,31.35Q64,33.1 65.8,35.65 68.451,39.461 69.475,44.275 70.595,49.641 69.7,56.25 70.85,54.6 71.6,51.6 72.745,47.27 72.2,42.625 71.983,40.79 71.5,38.9L72.65,40.15Q73.378,41.011 73.95,42.025 74.246,42.542 74.5,43.1 74.7,43.6 74.9,44.05 77.45,50.6 75.15,59.55 74.9,60.45 74.6,61.4 75.55,60.5 76.5,58.8 78.46,55.468 78.975,51.425L80.55,57.65Q80.7,58.25 80.75,58.85 81.086,61.261 81.05,63.35 76.671,66.137 73.025,67.3 70.793,65.696 68.8,64.7 66.9,63.9 66.15,63.55 63.4,62.3 63.3,62.25 62.5,61.7 61.85,60.95 60.95,59.9 60.35,58.45 60.323,58.397 60.3,58.35 60.237,58.197 60.2,58.05 59.2,55.55 57.6,49.25 55.8,42.35 55.55,41.3 52.65,30 50.55,26.25 53.1,27.55 56.1,31.35"/><path fill="#1D1D1D" d="M64.7,74.55Q64.65,74.5 64.65,74.45 63.95,73.8 62.95,73.8 61.95,73.8 61.25,74.45 61.25,74.5 61.2,74.55 60.45,75.25 60.45,76.3 60.45,77.3 61.2,78 61.9,78.75 62.95,78.75 64,78.75 64.7,78 65.45,77.3 65.45,76.3 65.45,75.25 64.7,74.55"/><path fill="#1D1D1D" d="M50.75,118.3Q50.15,118.45 50.3,119.1 53.55,129.2 58.9,137.1 61.616,141.051 64.425,144.275 64.44,144.31 64.45,144.35 64.5,144.4 64.6,144.5 65.45,145.8 64.85,146.6 64.6,147 64.1,147.15 63.615,147.299 62.725,147.3 62.427,147.311 62.1,147.3L62.05,147.3Q58.089,146.985 48.35,144.6 42.7,143.25 31.15,140.8L30.75,140.8Q30.5,140.9 30.4,141.15 30.3,141.35 30.35,141.6 30.4,141.8 30.6,141.95L30.65,141.95 30.7,142Q32.5,142.75 32.9,142.95 34.3,143.4 41.1,145.55 43.9,146.5 55.05,149.85 56.05,150.2 58.5,150.95 59.35,151.25 60.2,151.6 61.75,152.2 63.25,152.95 65.55,154.05 70.1,157.9 72.4,159.8 74.2,161.5 76.05,162.9 79.55,166.1 83.45,169.6 85.45,171.25 88.3,173.5 92.65,175.35 92.95,175.45 93.25,175.6 97.3,177.2 100.2,177.35 100.8,177.4 102.05,177.4 103.35,177.4 104.85,177.2 105.019,177.264 105.2,177.3 110.656,179.979 117,180.4 117.048,180.423 117.1,180.45 119.75,180.6 122.55,180.35 133.75,179.5 143.7,172.35 152.6,165.95 154.95,160.15 155.7,158.35 155.7,156.75L155.55,155.6 147.95,158.8Q144.15,160.45 139.15,161.65 133.07,163.072 128.375,162.9 128.298,162.875 128.2,162.85 127.05,162.8 126.4,162.7 122.9,162.25 119.2,160.05L119.175,160.05Q121.757,155.963 122.7,150.8 123.3,146.9 122.2,143.15 119.95,135.65 111.5,136.6 110.3,136.7 108.95,137.1 106.2,137.85 105.35,139.35L104.75,140.2Q104.15,141.4 104.1,142.95 104.066,143.079 104.025,143.2L103.3,143.25Q99.1,143.3 96.1,146.55 96.25,145.75 97.15,143.25 97.9,141.3 98.1,139.55 98.193,138.432 98.125,137.4 98.134,137.328 98.15,137.25 97.85,134.8 96.4,132.75 94.85,130.6 91.2,126 87.6,121.4 87.25,120.95 83.6,115.95 81.45,111.9 76.2,102.15 75.45,93.1 73.6,99.25 71.85,106.8 68.35,122 69.1,129.2 69.45,132.5 70.3,135.6L70.3,135.65Q71.7,140.9 74.6,145.65 73.2,145.15 71.55,144.1 70.023,143.098 68.35,141.65 68.307,141.569 68.25,141.5 67.25,140.6 66.2,139.55 61.05,134.5 55.75,126.1L51.5,118.7 51.45,118.7Q51.25,118.1 50.75,118.3 M94.8,138.35Q91.582,137.274 88.75,136.55 90.721,133.213 94.6,136.55 94.65,136.6 94.65,136.7 94.725,137.074 94.775,137.5 94.742,137.641 94.75,137.8 94.8,138.05 94.8,138.35 M95.95,147.175Q96.072,147.214 96.3,147.2 98.7,147.15 101,148.05L101.9,148.55 101.925,148.55Q101.912,148.577 101.9,148.6 101.5,149.4 101.5,150.75 101.475,150.745 101.45,150.75 100.05,150.95 98.9,151.15 97.2,151.35 95.85,151.35 95.7,148.65 95.95,147.2L95.95,147.175 M126.3,166.6Q128.357,170.677 123.975,174.2 126.671,170.691 126.05,166.575 126.177,166.6 126.3,166.6"/><path fill="#FFF" d="M76.05,108.15L75.95,110Q75.95,112.4 76.55,115.15 78.5,123.9 85.95,132.6 84.05,132.3 81.5,130.2 76.45,126.05 73.3,117.05L73.05,119.2Q73,121.85 73.7,124.6 75.313,130.427 80.175,135.075 82.701,137.499 86.1,139.6 84.15,139.55 81.5,138.35 78.799,137.152 76.55,135.15 74.391,133.248 72.65,130.6L73.05,132.5Q73.508,134.12 74.275,135.625 74.58,136.244 74.95,136.85 75,136.95 75.05,137.05 78.95,143.5 86.9,145.35 86.25,146.15 84.75,146.3 81.7,146.6 77.3,143.5L79.7,147.25Q79.95,147.55 80.2,147.85 80.269,147.942 80.325,148.025 83.115,151.704 85.75,153.9 85.773,153.934 85.8,153.975L85.75,153.95 85.6,153.85 84.55,153.325Q80.69,151.499 76.9,150.75 75.6,150.45 73.5,149.85 73.05,149.75 72.5,149.55 70.55,148.95 70.2,149.05 69.25,149.25 68.65,150.4 68.05,151.65 69.25,152.25L69.8,152.6Q70.5,153.05 71.25,153.35 74.25,154.75 75.95,156.05 78.35,157.95 82.85,162.5L86.9,166.4Q89.15,168.65 92.3,170.45 93.2,170.95 94.15,171.35 96.65,172.4 99.65,172.75 101.484,172.946 103.3,172.825 107.002,172.597 110.6,171.05L110.6,170.95Q113.4,169.65 114.65,166.7 115.95,163.75 115.05,160.55L114.225,158.6Q115.006,158.348 115.85,158.05 116.08,157.754 116.3,157.45 118.375,154.487 119.1,150.5 119.5,147.85 118.7,145.35 117.2,140.35 111.5,141 110.75,141.1 109.9,141.35 108.15,141.85 107.6,142.85L107.05,143.75Q106.55,145 106.7,146.75 106.55,147.2 106.25,147.6 105.9,148 105.4,148.45 104.745,149.023 104.7,150.2 104.682,150.461 104.7,150.75 104.8,152.4 105.9,153.4L106.4,154Q105.95,154.038 105.55,154.1 104.881,154.194 104.35,154.35 103.65,154.55 103.05,154.85L102.85,154.9Q101.9,155.15 101.1,155.35 98.7,155.95 96.95,156.1 96.07,156.13 95.175,156.125 95.055,156.169 94.9,156.2 94.7,156.25 94.5,156.25 94.3,156.2 94.1,156.1 94.05,156.05 94,156.05 92.456,154.198 92.275,151.2 92.148,149.346 92.55,147.05 92.7,146.1 94.25,141.65 94.35,141.25 94.45,140.95 94.8,139.6 94.8,138.35 91.582,137.274 88.75,136.55 90.721,133.213 94.6,136.55 93.85,134.9 86.1,125 77.75,114.3 76.05,108.15"/><path fill="#1D1D1D" d="M109.45,145.85Q108.85,146.75 109.05,147.75 109.25,148.8 110.1,149.4 111,150 112.05,149.8 113.1,149.65 113.7,148.75 114.3,147.85 114.1,146.8 113.9,145.75 113.05,145.15 112.15,144.55 111.05,144.75 110.05,144.95 109.45,145.85"/><path fill="#FFF" d="M117.95,163.5L117.875,163.425Q117.889,163.49 117.9,163.55L117.95,166.55Q117.4,170.05 114.45,172.2 112.876,174.069 110.525,175.3 113.594,176.221 116.8,176.5 117.033,176.406 117.3,176.35 118.12,176.35 119.275,176.6 119.387,176.6 119.5,176.6 119.543,176.625 119.575,176.65 119.784,176.65 119.95,176.65 120.808,176.619 121.675,176.55 123.639,176.397 125.65,176.05 138.35,173.75 149.35,162.4 144.1,164.65 137.55,165.95 131.15,167.15 126.3,166.6 128.357,170.677 123.975,174.2 126.671,170.691 126.05,166.575 125.977,166.569 125.9,166.55 121.1,165.9 117.95,163.5"/><animate attributeName="display" repeatCount="indefinite" dur="0.9s" keyTimes="0;0.333;1" values="inline;none;none"/></g><defs/></svg>