<?xml version="1.0" encoding="utf-8"?><svg xmlns:xlink="http://www.w3.org/1999/xlink" id="Scene_1" image-rendering="auto" baseProfile="basic" version="1.1" x="0px" y="0px" width="20" height="20" viewBox="0 0 20 20" xmlns="http://www.w3.org/2000/svg"><g id="Scene 1_0.0.0"><path fill="#363636" d="M4,6.75L4,19.15 16,19.15 16,6.75 4,6.75"/><g transform="matrix(0.029 0 0 0.029 6.1 0.85)"><path fill="#363636" d="M256.875,82L256.875,81.975Q246.709,57.972 228.275,39.425L228.25,39.4Q209.733,20.834 185.7,10.6L185.675,10.6Q160.719,0.013 133.35,0 106.21,0.001 81.375,10.6L81.35,10.625Q57.487,20.859 39.025,39.425 20.584,57.983 10.475,82L10.475,82.025Q0.006,106.92 0,134L0,250.05 35,250.05 35,134Q34.994,113.98 42.725,95.575L42.725,95.6Q50.216,77.817 63.875,64.075 77.513,50.341 95.15,42.775L95.125,42.8Q113.389,34.999 133.35,35 153.581,34.987 172.025,42.8L172,42.8Q189.75,50.359 203.425,64.075L203.45,64.1Q217.097,77.844 224.625,95.625L224.625,95.6Q232.356,113.95 232.35,134L232.35,250.05 267.35,250.05 267.35,134Q267.344,106.85 256.875,82"/></g></g><defs/></svg>