<?xml version="1.0" encoding="utf-8"?><svg xmlns:xlink="http://www.w3.org/1999/xlink" id="Scene_1" image-rendering="auto" baseProfile="basic" version="1.1" x="0px" y="0px" width="25" height="25" viewBox="0 0 25 25" xmlns="http://www.w3.org/2000/svg"><g id="Scene 1_0.0"><path fill="#373535" d="M14.45,3.75Q13.5,2.9 12.25,3 11.15,3.1 10.4,3.95 9.65,4.75 9.65,5.9L9.65,15 9.55,15.3Q8.55,16.45 8.55,17.95 8.55,19.65 9.75,20.8 10.9,21.95 12.55,21.95 14.2,21.95 15.35,20.8 16.55,19.65 16.5,18 16.5,16.45 15.5,15.3L15.4,15.05 15.4,5.85Q15.4,4.6 14.45,3.75 M12.55,8.75Q12.8,8.75 13,8.95 13.15,9.1 13.15,9.35L13.15,16.35Q13.45,16.5 13.7,16.75 14.2,17.25 14.2,17.9 14.2,18.6 13.7,19.1 13.25,19.6 12.55,19.6 11.85,19.6 11.35,19.1 10.85,18.6 10.85,17.9 10.85,17.2 11.35,16.75 11.6,16.5 11.95,16.35L11.95,9.35Q11.95,9.1 12.15,8.95 12.3,8.75 12.55,8.75"/></g><defs/></svg>