<svg xmlns:xlink="http://www.w3.org/1999/xlink" id="Scene_1" image-rendering="auto" baseProfile="basic" version="1.1" x="0px" y="0px" width="25" height="25" viewBox="0 0 25 25" xmlns="http://www.w3.org/2000/svg"><defs><style>.cls-1{fill:#252525;}.cls-2{fill:none;stroke:#252525;stroke-linecap:round;stroke-miterlimit:10;}</style></defs><title>Asset 3</title><g id="Layer_2" data-name="Layer 2"><g id="Icons"><path class="cls-1" d="M12.86,1c-.06,3.13-.63,8-3.4,10a5.06,5.06,0,0,1-3,.91,9,9,0,0,1-2.68-.47A6.78,6.78,0,0,1,4,5.37C5.46,3,8.67,1.45,12.86,1m.59-1h0C8.6.32,4.86,2.08,3.15,4.84a7.85,7.85,0,0,0-.22,7.32.43.43,0,0,0,.28.23,10.25,10.25,0,0,0,3.23.6A6,6,0,0,0,10,11.89c3.14-2.27,3.82-7.5,3.82-11.47a.45.45,0,0,0-.14-.31A.39.39,0,0,0,13.45,0Z"/><path class="cls-2" d="M9.15,5.44s-3,6.32-8.65,7.66"/></g></g></svg>