<?xml version="1.0" encoding="utf-8"?><svg xmlns:xlink="http://www.w3.org/1999/xlink" id="Scene_1" image-rendering="auto" baseProfile="basic" version="1.1" x="0px" y="0px" width="25" height="25" viewBox="0 0 25 25" xmlns="http://www.w3.org/2000/svg"><g id="Scene 1_0.0"><path fill="#292929" d="M18,4.8L17.7,4.15 17.7,4.2Q17.6,5.1 17.15,5.7 16.8,6.15 16.4,6.4 15.75,6.9 14.7,7.3L12.4,8.25Q10.9,8.9 9.9,9.65 8.2,10.85 7.5,12.45 6.75,14.1 6.7,15.5 6.6,17.85 7.4,19.6 7.8,20.5 8.25,20.9L9.25,20.9 9,20.65Q8.3,19.95 7.9,18.9 7.45,17.5 7.5,16.3 7.55,14.45 9.45,13 10.9,11.9 12.65,11.4L12.7,11.4Q10.4,13 9.55,13.85 8.1,15.25 8.1,16.3L8.15,16.4Q9.75,16.6 10.8,16.4 13.05,16.05 14.85,14.4 16.4,13.1 17.35,11.15 18.2,9.25 18.3,7.25 18.4,6 18,4.8"/></g><defs/></svg>