<?xml version="1.0" encoding="utf-8"?><svg xmlns:xlink="http://www.w3.org/1999/xlink" id="Scene_1" image-rendering="auto" baseProfile="basic" version="1.1" x="0px" y="0px" width="25" height="25" viewBox="0 0 25 25" xmlns="http://www.w3.org/2000/svg"><g id="Scene 1_0.0"><path fill="#292929" d="M22.15,9.25Q22.7,9.2 22.35,8.85 21.8,8.4 21.35,8.35L21,8.35Q20.05,8.75 19.4,10.2 19.1,10.95 18.95,11.6 18.7,12.25 17.35,11.95L17.3,11.75Q17.05,11.05 16.35,10.35L15.65,9.75 15.3,9.1Q15.45,8.9 15.35,8.65 15.15,7.95 12.4,7.9 12.15,7.85 12.05,7.7L12,7.5Q12.25,7.35 12.3,6.95 12.3,6.15 11.3,6.15 10.25,6.15 10.25,6.95L10.3,7.15Q10.4,7.4 10.55,7.5 10.55,7.85 10.15,7.9 7.4,7.95 7.2,8.65L7.25,9.1Q7.2,9.45 6.9,9.75L6.75,9.8Q5.65,8.3 3.9,8.9 3.6,9 3.25,9.35 2.6,10.05 2.6,11.35L2.8,12.45Q3.25,13.7 4.45,14.55L5.2,15.1Q5.65,16.75 7.15,17.65L7.3,17.85Q7.45,18.05 7.4,18.3 8.35,18.9 10.9,18.9L11.65,18.9Q14.2,18.9 15.15,18.3 15.1,18.05 15.25,17.85 15.35,17.7 15.4,17.65 16.65,16.9 17.15,15.65 19.1,15.35 20,13.35 20.5,12.35 20.55,11.4 20.75,10.1 21.45,9.55 21.85,9.3 22.15,9.25 M4.45,9.45Q5.8,9.35 5.95,10.5L5.95,10.55Q5.4,11.2 5.25,11.75L5.1,12.45Q4.95,13.25 5,14.05 4.4,13.75 4.15,13.45 3,12.1 3.25,10.75 3.4,9.65 4.45,9.45"/></g><defs/></svg>