<svg xmlns:xlink="http://www.w3.org/1999/xlink" id="Scene_1" image-rendering="auto" baseProfile="basic" version="1.1" x="0px" y="0px" width="25" height="25" viewBox="0 0 25 25" xmlns="http://www.w3.org/2000/svg"><defs><style>.cls-1{fill:#252525;}.cls-2{fill:none;stroke:#252525;stroke-linecap:round;stroke-miterlimit:10;}</style></defs><title>Asset 1</title><g id="Layer_2" data-name="Layer 2"><g id="Icons"><circle class="cls-1" cx="4.35" cy="15.71" r="1.69"/><line class="cls-2" x1="4.35" y1="15.71" x2="4.35" y2="6.53"/><path class="cls-1" d="M4.33,1A2.17,2.17,0,0,1,6.5,3.17v10l.27.29a3.35,3.35,0,1,1-4.88,0l.26-.29V3.17A2.17,2.17,0,0,1,4.33,1m0-1A3.16,3.16,0,0,0,1.16,3.17v9.69A4.34,4.34,0,1,0,8.69,15.8a4.32,4.32,0,0,0-1.19-3V3.17A3.17,3.17,0,0,0,4.33,0Z"/></g></g></svg>