<?xml version="1.0" encoding="utf-8"?><svg xmlns:xlink="http://www.w3.org/1999/xlink" id="Scene_1" image-rendering="auto" baseProfile="basic" version="1.1" x="0px" y="0px" width="25" height="25" viewBox="0 0 25 25" xmlns="http://www.w3.org/2000/svg"><g id="Scene 1_0.0"><path fill="#373535" d="M17.35,7.65Q15.35,5.65 12.5,5.65 9.7,5.65 7.7,7.65 5.7,9.7 5.7,12.5 5.7,15.35 7.7,17.35 9.7,19.35 12.5,19.35 15.35,19.35 17.35,17.35 19.35,15.35 19.35,12.5 19.35,9.7 17.35,7.65 M12.125,7.975Q12.281,7.823 12.5,7.825 12.719,7.823 12.875,7.975 13.027,8.131 13.025,8.35L13.025,12.975 15.75,12.975Q15.969,12.973 16.125,13.125 16.277,13.281 16.275,13.5 16.277,13.719 16.125,13.875 15.969,14.027 15.75,14.025L11.975,14.025 11.975,8.35Q11.973,8.131 12.125,7.975"/></g><defs/></svg>